# xmcd
# 
# Track frame offsets:
#     150
#     16465
#     23351
#     29708
#     39566
#     45981
#     62336
#     69507
#     90800
#     93730
#     106985
#     117260
#     136387
#     144554
#     156720
#     160366
#     178271
#     190624
# 
# Disc length: 2740
# 
# Revision: 0
# Processed by: cddbd v1.5.2PL0 Copyright (c) Steve Scherf et al.
# Submitted via: fre:ac v1.0.31
# 
DISCID=ee0ab212
DTITLE=Les semeurs de blues - Toupie Blues
DYEAR=0
DGENRE=Blues
TTITLE0=Des gosses à la pelle
TTITLE1=Il était une fois
TTITLE2=Work songs
TTITLE3=La vie est dure
TTITLE4=La veillée blues
TTITLE5=On se retrouve autour d'une table
TTITLE6=Harmonica Slim
TTITLE7=Tchou Tchou Tchou
TTITLE8=Le blues
TTITLE9=Le blues de la voie ferrée
TTITLE10=Les progrès de Toupie
TTITLE11=Un vrai Hoochie coochie man
TTITLE12=L'enregistrement
TTITLE13=Me voilà à Menphis
TTITLE14=La consécration
TTITLE15=Baby Boogie
TTITLE16=Retour aux sources
TTITLE17=Toupie blues
EXTD=
EXTT0=
EXTT1=
EXTT2=
EXTT3=
EXTT4=
EXTT5=
EXTT6=
EXTT7=
EXTT8=
EXTT9=
EXTT10=
EXTT11=
EXTT12=
EXTT13=
EXTT14=
EXTT15=
EXTT16=
EXTT17=
PLAYORDER=
